<svg xmlns="http://www.w3.org/2000/svg" width="1in" height="0.8132in" viewBox="0 0 72 58.5506"><defs><style>.a{fill:#7f2a8f;}.b{opacity:0.5;}.c{fill:#a6bee3;}</style></defs><title>hamMenuLogo</title><rect class="a" y="0.0516" width="72" height="12.1421" rx="4.7877" ry="4.7877"/><rect class="a" y="22.1042" width="72" height="12.1421" rx="4.7877" ry="4.7877"/><rect class="a" y="46.4085" width="72" height="12.1421" rx="4.7877" ry="4.7877"/><g class="b"><path class="c" d="M10.1694,43.5449v22.76H.0264V7.8247H13.3022q8.4272,0,12.4365,4.28t4.0088,13.08q0,11.0808-6.9736,15.48l10.479,25.64H22.4009l-8.6143-22.76Zm0-9.36h2.61q3.58,0,5.1465-2.18t1.5659-6.5q0-4.4795-1.6592-6.38a6.4562,6.4562,0,0,0-5.1274-1.9H10.1694Z" transform="translate(0 -7.8247)"/><path class="c" d="M71.8867,66.3047H61.7422V40.665H48.3555v25.64H38.2129V7.8247H48.3555v23.24H61.7422V7.8247H71.8867Z" transform="translate(0 -7.8247)"/></g></svg>