<?xml version="1.0" ?><svg enable-background="new 0 0 512 512" id="Layer_1" version="1.1" viewBox="0 0 512 512" xml:space="preserve" xmlns="http://www.w3.org/2000/svg" xmlns:xlink="http://www.w3.org/1999/xlink"><g><g><linearGradient gradientUnits="userSpaceOnUse" id="SVGID_1_" x1="-0.0000027" x2="512" y1="256" y2="256"><stop offset="0" style="stop-color:#A364AB"/><stop offset="1" style="stop-color:#8C3D96"/></linearGradient><circle cx="256" cy="256" fill="url(#SVGID_1_)" r="256"/><linearGradient gradientUnits="userSpaceOnUse" id="SVGID_2_" x1="42.6666641" x2="469.3333435" y1="256.0005188" y2="256.0005188"><stop offset="0" style="stop-color:#8C3D96"/><stop offset="1" style="stop-color:#A364AB"/></linearGradient><path d="M256,469.3338623c-117.6315155,0-213.3333435-95.7018738-213.3333435-213.3333435    c0-117.6309204,95.7018204-213.333313,213.3333435-213.333313c117.6356812,0,213.3333435,95.7024002,213.3333435,213.333313    C469.3333435,373.6319885,373.6356812,469.3338623,256,469.3338623z" fill="url(#SVGID_2_)"/></g><g><path d="M382.999939,324.6047974c0.3141479-3.5301208,0.5402832-7.0863953,0.5402832-10.6976013    c0-64.2773285-50.7354736-116.6853333-114.3418579-119.4101257v-27.1941376h30.6693115v-10.398941h-71.7354584v10.398941    h30.6671906v27.1941376c-63.6053162,2.7258606-114.3402557,55.1333313-114.3402557,119.4101257    c0,3.6112061,0.2261353,7.1674805,0.5402679,10.6976013H382.999939z" opacity="0.3"/><rect height="10.3994665" opacity="0.3" width="240" x="144" y="360.6970825"/></g><g><path d="M374.999939,316.6047974c0.3141479-3.5301208,0.5402832-7.0863953,0.5402832-10.6976013    c0-64.2773285-50.7354736-116.6853333-114.3418579-119.4101257v-27.1941376h30.6693115v-10.398941h-71.7354584v10.398941    h30.6672058v27.1941376c-63.6053314,2.7258606-114.340271,55.1333313-114.340271,119.4101257    c0,3.6112061,0.2261353,7.1674805,0.5402679,10.6976013H374.999939z" fill="#FFFFFF"/><rect fill="#FFFFFF" height="10.3994665" width="240" x="136" y="352.6970825"/></g></g></svg>